# xmcd
#
# Track frame offsets: 
#        150
#        45865
#        89249
#        132493
#        161768
#        202866
#        228696
#
# Disc length: 3771 seconds
#
# Revision: 0
# Processed by: cddbd v1.5.2PL0 Copyright (c) Steve Scherf et al.
# Submitted via: ExactAudioCopy v1.0b1
#
DISCID=5c0eb907
DTITLE=Eric Clapton  - Union of the Gods - Disc 1 
DYEAR=1900
DGENRE=
TTITLE0=Layla
TTITLE1=Key to the Highway
TTITLE2=Badge
TTITLE3=Bell Bottom Blues
TTITLE4=Further On Up the Road
TTITLE5=Better Make it Through Today
TTITLE6=Blues Power
EXTD=
EXTT0=
EXTT1=
EXTT2=
EXTT3=
EXTT4=
EXTT5=
EXTT6=
PLAYORDER=
